<svg xmlns="http://www.w3.org/2000/svg" viewBox="0 0 1200 630" role="img" aria-labelledby="title desc">
  <title id="title">Perfect Pantry</title>
  <desc id="desc">Cook with what you already have.</desc>
  <defs>
    <linearGradient id="bg" x1="0" y1="0" x2="1" y2="1">
      <stop offset="0" stop-color="#fff4df"/>
      <stop offset="1" stop-color="#f0d4ae"/>
    </linearGradient>
    <linearGradient id="accent" x1="0" y1="0" x2="1" y2="1">
      <stop offset="0" stop-color="#d27a3d"/>
      <stop offset="1" stop-color="#b6632e"/>
    </linearGradient>
    <linearGradient id="sage" x1="0" y1="0" x2="1" y2="1">
      <stop offset="0" stop-color="#7ea974"/>
      <stop offset="1" stop-color="#3f5e39"/>
    </linearGradient>
  </defs>
  <rect width="1200" height="630" fill="url(#bg)"/>
  <circle cx="160" cy="88" r="210" fill="rgba(210,122,61,0.15)"/>
  <circle cx="1110" cy="-30" r="220" fill="rgba(95,127,87,0.16)"/>

  <g transform="translate(92 154)">
    <rect x="0" y="0" width="84" height="84" rx="24" fill="url(#accent)"/>
    <rect x="8" y="8" width="68" height="68" rx="18" fill="rgba(255,255,255,0.23)"/>
    <path d="M24 50c0-11 9-20 20-20h19" fill="none" stroke="#fff7e7" stroke-width="6" stroke-linecap="round"/>
    <path d="M63 30c0 11-9 20-20 20H24" fill="none" stroke="#fff7e7" stroke-width="6" stroke-linecap="round"/>
    <path d="M45 21c10 6 14 18 9 28" fill="none" stroke="url(#sage)" stroke-width="5" stroke-linecap="round"/>
  </g>

  <text x="92" y="320" fill="#233027" font-size="78" font-weight="700" font-family="Georgia, serif">Perfect Pantry</text>
  <text x="92" y="385" fill="#375045" font-size="44" font-family="Arial, sans-serif">Cook with what you already have.</text>
  <text x="92" y="446" fill="#5d6d61" font-size="30" font-family="Arial, sans-serif">Recipes. Pantry. Plan. Shop. One calm flow.</text>

  <g transform="translate(780 84)">
    <rect width="290" height="470" rx="46" fill="#151d18"/>
    <rect x="16" y="16" width="258" height="438" rx="34" fill="#fbefde"/>
    <rect x="34" y="56" width="220" height="88" rx="20" fill="rgba(210,122,61,0.18)"/>
    <rect x="34" y="158" width="220" height="64" rx="16" fill="rgba(95,127,87,0.14)"/>
    <rect x="34" y="236" width="220" height="64" rx="16" fill="rgba(35,48,39,0.1)"/>
    <rect x="34" y="314" width="220" height="64" rx="16" fill="rgba(210,122,61,0.18)"/>
    <rect x="34" y="392" width="106" height="36" rx="10" fill="url(#accent)"/>
  </g>
</svg>
