<svg xmlns="http://www.w3.org/2000/svg" viewBox="0 0 1170 2532" role="img" aria-label="Pantry &amp; Plate shopping preview">
  <defs>
    <linearGradient id="bg" x1="0" y1="0" x2="1" y2="1">
      <stop offset="0" stop-color="#fef2de"/>
      <stop offset="1" stop-color="#d9e0cb"/>
    </linearGradient>
  </defs>
  <rect width="1170" height="2532" fill="#111"/>
  <rect x="70" y="60" width="1030" height="2410" rx="110" fill="url(#bg)"/>
  <text x="170" y="210" fill="#243026" font-size="84" font-family="Arial" font-weight="700">Shop</text>
  <rect x="150" y="260" width="870" height="170" rx="42" fill="rgba(95,127,87,0.2)"/>
  <rect x="150" y="500" width="870" height="1640" rx="46" fill="rgba(255,255,255,0.8)"/>
  <rect x="180" y="560" width="810" height="112" rx="24" fill="rgba(35,48,39,0.12)"/>
  <rect x="180" y="700" width="810" height="112" rx="24" fill="rgba(95,127,87,0.2)"/>
  <rect x="180" y="840" width="810" height="112" rx="24" fill="rgba(210,122,61,0.2)"/>
  <rect x="180" y="980" width="810" height="112" rx="24" fill="rgba(35,48,39,0.12)"/>
  <rect x="180" y="1120" width="810" height="112" rx="24" fill="rgba(95,127,87,0.2)"/>
  <rect x="180" y="1260" width="810" height="112" rx="24" fill="rgba(210,122,61,0.2)"/>
  <rect x="180" y="1400" width="810" height="112" rx="24" fill="rgba(35,48,39,0.12)"/>
  <rect x="180" y="1540" width="810" height="112" rx="24" fill="rgba(95,127,87,0.2)"/>
  <rect x="180" y="1680" width="810" height="112" rx="24" fill="rgba(210,122,61,0.2)"/>
  <rect x="150" y="2210" width="870" height="160" rx="42" fill="rgba(35,48,39,0.15)"/>
</svg>
