<svg xmlns="http://www.w3.org/2000/svg" viewBox="0 0 1170 2532" role="img" aria-label="Pantry &amp; Plate cookbook preview">
  <defs>
    <linearGradient id="bg" x1="0" y1="0" x2="1" y2="1">
      <stop offset="0" stop-color="#fff3df"/>
      <stop offset="1" stop-color="#f5ceb8"/>
    </linearGradient>
  </defs>
  <rect width="1170" height="2532" fill="#111"/>
  <rect x="70" y="60" width="1030" height="2410" rx="110" fill="url(#bg)"/>
  <text x="170" y="210" fill="#243026" font-size="84" font-family="Arial" font-weight="700">Cookbook</text>
  <rect x="150" y="260" width="870" height="160" rx="42" fill="rgba(210,122,61,0.24)"/>
  <rect x="150" y="500" width="420" height="620" rx="42" fill="rgba(255,255,255,0.78)"/>
  <rect x="600" y="500" width="420" height="620" rx="42" fill="rgba(255,255,255,0.78)"/>
  <rect x="170" y="540" width="380" height="300" rx="24" fill="rgba(210,122,61,0.22)"/>
  <rect x="620" y="540" width="380" height="300" rx="24" fill="rgba(95,127,87,0.2)"/>
  <rect x="170" y="860" width="300" height="30" rx="10" fill="rgba(35,48,39,0.14)"/>
  <rect x="620" y="860" width="300" height="30" rx="10" fill="rgba(35,48,39,0.14)"/>
  <rect x="150" y="1180" width="870" height="980" rx="46" fill="rgba(255,255,255,0.78)"/>
  <rect x="190" y="1240" width="790" height="120" rx="24" fill="rgba(35,48,39,0.11)"/>
  <rect x="190" y="1390" width="790" height="120" rx="24" fill="rgba(210,122,61,0.18)"/>
  <rect x="190" y="1540" width="790" height="120" rx="24" fill="rgba(95,127,87,0.16)"/>
  <rect x="190" y="1690" width="790" height="120" rx="24" fill="rgba(35,48,39,0.11)"/>
  <rect x="190" y="1840" width="790" height="120" rx="24" fill="rgba(210,122,61,0.18)"/>
</svg>
