<svg xmlns="http://www.w3.org/2000/svg" viewBox="0 0 1170 2532" role="img" aria-label="Pantry &amp; Plate pantry preview">
  <defs>
    <linearGradient id="bg" x1="0" y1="0" x2="1" y2="1">
      <stop offset="0" stop-color="#f4f0df"/>
      <stop offset="1" stop-color="#cfddb7"/>
    </linearGradient>
  </defs>
  <rect width="1170" height="2532" fill="#111"/>
  <rect x="70" y="60" width="1030" height="2410" rx="110" fill="url(#bg)"/>
  <text x="170" y="210" fill="#243026" font-size="84" font-family="Arial" font-weight="700">Pantry</text>
  <rect x="150" y="260" width="870" height="180" rx="42" fill="rgba(95,127,87,0.24)"/>
  <rect x="150" y="500" width="870" height="1600" rx="46" fill="rgba(255,255,255,0.82)"/>
  <rect x="190" y="560" width="790" height="124" rx="24" fill="rgba(35,48,39,0.11)"/>
  <rect x="190" y="716" width="790" height="124" rx="24" fill="rgba(95,127,87,0.17)"/>
  <rect x="190" y="872" width="790" height="124" rx="24" fill="rgba(35,48,39,0.11)"/>
  <rect x="190" y="1028" width="790" height="124" rx="24" fill="rgba(95,127,87,0.17)"/>
  <rect x="190" y="1184" width="790" height="124" rx="24" fill="rgba(35,48,39,0.11)"/>
  <rect x="190" y="1340" width="790" height="124" rx="24" fill="rgba(95,127,87,0.17)"/>
  <rect x="190" y="1496" width="790" height="124" rx="24" fill="rgba(35,48,39,0.11)"/>
  <rect x="190" y="1652" width="790" height="124" rx="24" fill="rgba(95,127,87,0.17)"/>
  <rect x="150" y="2140" width="870" height="230" rx="52" fill="rgba(35,48,39,0.13)"/>
</svg>
