<svg xmlns="http://www.w3.org/2000/svg" viewBox="0 0 1170 2532" role="img" aria-label="Pantry &amp; Plate home preview">
  <defs>
    <linearGradient id="bg" x1="0" y1="0" x2="1" y2="1">
      <stop offset="0" stop-color="#fff3df"/>
      <stop offset="1" stop-color="#efd0a7"/>
    </linearGradient>
  </defs>
  <rect width="1170" height="2532" fill="#111"/>
  <rect x="70" y="60" width="1030" height="2410" rx="110" fill="url(#bg)"/>
  <text x="170" y="210" fill="#243026" font-size="84" font-family="Arial" font-weight="700">Home</text>
  <rect x="150" y="260" width="870" height="220" rx="48" fill="rgba(210,122,61,0.24)"/>
  <rect x="150" y="530" width="420" height="190" rx="38" fill="rgba(95,127,87,0.18)"/>
  <rect x="600" y="530" width="420" height="190" rx="38" fill="rgba(35,48,39,0.13)"/>
  <rect x="150" y="760" width="870" height="620" rx="46" fill="rgba(255,255,255,0.8)"/>
  <rect x="190" y="830" width="790" height="86" rx="22" fill="rgba(35,48,39,0.11)"/>
  <rect x="190" y="940" width="790" height="86" rx="22" fill="rgba(95,127,87,0.17)"/>
  <rect x="190" y="1050" width="790" height="86" rx="22" fill="rgba(210,122,61,0.17)"/>
  <rect x="190" y="1160" width="790" height="86" rx="22" fill="rgba(35,48,39,0.11)"/>
  <rect x="150" y="1450" width="870" height="720" rx="46" fill="rgba(255,255,255,0.7)"/>
  <rect x="170" y="2200" width="830" height="170" rx="50" fill="rgba(35,48,39,0.13)"/>
</svg>
