<svg xmlns="http://www.w3.org/2000/svg" width="24" height="24" viewBox="0 0 24 24" fill="none">

<path fill="currentColor" fill-rule="evenodd" d="M6.1 6.2H3.8a1.2 1.2 0 1 1 0-2.4H7c.56 0 1.05.39 1.16.94l.3 1.46H20a1.2 1.2 0 0 1 1.16 1.5l-1.35 5.0a3 3 0 0 1-2.9 2.24H10.2a3 3 0 0 1-2.94-2.34L6.1 6.2zm3.1 3.4.48 2.3c.06.28.3.48.58.48h6.6c.27 0 .5-.18.58-.44l.93-3.34H9.2z" clip-rule="evenodd"/>
<path fill="currentColor" d="M9.6 19.0a1.7 1.7 0 1 0 0 3.4 1.7 1.7 0 0 0 0-3.4zM17.4 19.0a1.7 1.7 0 1 0 0 3.4 1.7 1.7 0 0 0 0-3.4z"/>

<path fill="currentColor" d="M14 4.9a1 1 0 0 1 2 0v1.6h1.6a1 1 0 1 1 0 2H16v1.6a1 1 0 1 1-2 0V8.5h-1.6a1 1 0 1 1 0-2H14V4.9z"/>

</svg>
