<svg xmlns="http://www.w3.org/2000/svg" width="24" height="24" viewBox="0 0 24 24" fill="none">
<path fill="currentColor" fill-rule="evenodd" d="M7 2.8a1 1 0 0 1 1 1V5h8V3.8a1 1 0 1 1 2 0V5h.8A3.2 3.2 0 0 1 22 8.2v10.6A3.2 3.2 0 0 1 18.8 22H5.2A3.2 3.2 0 0 1 2 18.8V8.2A3.2 3.2 0 0 1 5.2 5H6V3.8a1 1 0 0 1 1-1zm-1.8 6.6v9.4c0 .44.36.8.8.8h13.6c.44 0 .8-.36.8-.8V9.4H5.2zm10.0 3.0a1.1 1.1 0 0 1 1.56 0 1.1 1.1 0 0 1 0 1.56l-4.2 4.2a1.1 1.1 0 0 1-1.56 0L8.8 15.8a1.1 1.1 0 1 1 1.56-1.56l1.42 1.42 3.44-3.44z" clip-rule="evenodd"/>
</svg>
