<svg xmlns="http://www.w3.org/2000/svg" width="24" height="24" viewBox="0 0 24 24" fill="none">

<path fill="currentColor" fill-rule="evenodd" d="M6.3 3.2h11.2A2.6 2.6 0 0 1 20 5.8v12.4a2.6 2.6 0 0 1-2.5 2.6H7.3A3.3 3.3 0 0 0 4 17.5V5.5a2.3 2.3 0 0 1 2.3-2.3zm.1 2.4a.8.8 0 0 0-.8.8v10.8c.5-.3 1.1-.4 1.7-.4h10.2c.2 0 .3-.15.3-.33V5.9c0-.17-.14-.3-.3-.3H6.4z" clip-rule="evenodd"/>
<path fill="currentColor" d="M14.9 18.1v3.2l-1.9-1-1.9 1v-3.2h3.8z"/>
<path fill="currentColor" fill-rule="evenodd" d="M12 7.0c1.2-1 2.8-.6 3.1.8.6.04 1.2.36 1.4 1.0.3.95-.4 2.0-1.6 2.0H9.1c-1.2 0-1.9-1.05-1.6-2.0.2-.64.8-.96 1.4-1.0.3-1.4 1.9-1.8 3.1-.8z" clip-rule="evenodd"/>

</svg>
