<svg xmlns="http://www.w3.org/2000/svg" width="900" height="600" viewBox="0 0 900 600">
  <defs>
    <linearGradient id="g" x1="0" y1="0" x2="1" y2="1">
      <stop offset="0" stop-color="#2f7d6d" stop-opacity="0.16"/>
      <stop offset="1" stop-color="#c36a3a" stop-opacity="0.16"/>
    </linearGradient>
    <linearGradient id="g2" x1="0" y1="0" x2="1" y2="1">
      <stop offset="0" stop-color="#2f7d6d" stop-opacity="0.9"/>
      <stop offset="1" stop-color="#c36a3a" stop-opacity="0.9"/>
    </linearGradient>
    <filter id="s" x="-20%" y="-20%" width="140%" height="140%">
      <feDropShadow dx="0" dy="10" stdDeviation="18" flood-color="#000" flood-opacity="0.16"/>
    </filter>
  </defs>
  <rect width="100%" height="100%" fill="url(#g)"/>
  <rect x="60" y="60" width="780" height="480" rx="28" fill="#fff" opacity="0.86" stroke="rgba(31,41,55,0.16)"/>
  <rect x="108" y="108" width="684" height="384" rx="26" fill="#0b0f14" filter="url(#s)"/>
  <rect x="126" y="126" width="648" height="348" rx="22" fill="#111827"/>
  <circle cx="450" cy="123" r="6" fill="rgba(255,255,255,0.24)"/>
  <rect x="162" y="168" width="576" height="16" rx="8" fill="rgba(255,255,255,0.10)"/>
  <rect x="162" y="198" width="432" height="16" rx="8" fill="rgba(255,255,255,0.10)"/>
  <rect x="162" y="240" width="504" height="96" rx="18" fill="rgba(255,255,255,0.06)"/>
  <rect x="162" y="312" width="504" height="96" rx="18" fill="rgba(255,255,255,0.06)"/>
  <rect x="162" y="384" width="504" height="96" rx="18" fill="rgba(255,255,255,0.06)"/>
  <text x="50%" y="128" text-anchor="middle" font-family="ui-sans-serif, system-ui, -apple-system, Segoe UI, Roboto, Helvetica, Arial" font-size="30" font-weight="800" fill="#111827">Perfect Pantry</text>
  <text x="50%" y="160" text-anchor="middle" font-family="ui-sans-serif, system-ui, -apple-system, Segoe UI, Roboto, Helvetica, Arial" font-size="16" font-weight="700" fill="#6b7280">Recipe browser • Meal planner • Pantry tracker • Shopping assistant</text>
  <rect x="345" y="470" width="210" height="44" rx="14" fill="url(#g2)" opacity="0.95"/>
  <text x="50%" y="500" text-anchor="middle" font-family="ui-sans-serif, system-ui" font-size="14" font-weight="900" fill="#fff">screenshot placeholder</text>
</svg>